<svg xmlns="http://www.w3.org/2000/svg" width="242" height="27" viewBox="0 0 242 27"><g><g clip-path="url(#clip-75dff357-135a-41bc-a583-a4300485a6f7)"><path fill="#fff" d="M.705 26.62c-.31-.024-.505-.064-.586-.122C.04 26.44 0 26.342 0 26.204V2.181c0-.14.038-.238.12-.296.08-.055.275-.097.585-.119.31-.023.705-.034 1.187-.034h.379c.872 0 1.418.022 1.635.067.219.048.328.174.328.382v24.023c0 .208-.11.336-.328.38-.217.047-.763.07-1.635.07h-.38c-.481 0-.876-.01-1.186-.035"/></g><g clip-path="url(#clip-75dff357-135a-41bc-a583-a4300485a6f7)"><path fill="#fff" d="M9.76 26.55c-.218-.069-.328-.197-.328-.381V15.577c0-2.493-.057-4.72-.17-6.681-.027-.207.066-.346.274-.415.206-.07.688-.104 1.446-.104h.17c.713 0 1.183.028 1.412.086.23.059.357.168.38.33.091.553.15 1.096.172 1.626.597-.739 1.353-1.32 2.273-1.749.917-.426 1.94-.639 3.063-.639 2.112 0 3.721.612 4.822 1.834.572.647.991 1.419 1.256 2.32.264.9.396 2.018.396 3.357v10.627c0 .184-.116.312-.344.382-.23.068-.736.103-1.518.103h-.204c-.85 0-1.379-.035-1.583-.103-.208-.07-.31-.198-.31-.382v-9.242c0-1.338-.051-2.303-.156-2.891-.103-.589-.328-1.066-.671-1.437-.597-.645-1.504-.967-2.72-.967-1.195 0-2.181.298-2.961.898-.598.463-.929 1.143-.999 2.043-.045.578-.068 1.88-.068 3.911v7.685c0 .184-.115.312-.346.382-.228.068-.735.103-1.513.103h-.172c-.85 0-1.384-.035-1.601-.103"/></g><g clip-path="url(#clip-75dff357-135a-41bc-a583-a4300485a6f7)"><path fill="#fff" d="M31.536 26.481c-1.08-.347-1.986-.787-2.72-1.316-.159-.115-.241-.243-.241-.38 0-.162.138-.522.413-1.074l.241-.485c.185-.368.332-.628.448-.778.115-.15.241-.225.379-.225.045 0 .137.022.275.069 1.72.968 3.317 1.453 4.787 1.453.94 0 1.686-.19 2.238-.571.55-.38.825-.904.825-1.573 0-.647-.286-1.132-.86-1.456-.575-.322-1.642-.692-3.202-1.107-1.767-.507-3.059-1.164-3.875-1.972-.812-.808-1.221-1.94-1.221-3.394 0-1.754.619-3.132 1.86-4.136 1.239-1.003 2.88-1.505 4.922-1.505 1.056 0 2.072.151 3.048.45.975.3 1.841.739 2.6 1.314.138.094.205.207.205.346 0 .163-.185.532-.55 1.108l-.242.382c-.299.483-.515.774-.654.865-.138.091-.287.081-.446-.035-1.24-.807-2.514-1.212-3.822-1.212-.988 0-1.745.173-2.272.519-.53.346-.794.855-.794 1.525 0 .46.156.837.466 1.123.31.29.694.515 1.152.676.46.163 1.16.381 2.102.658 1.882.552 3.254 1.206 4.113 1.955.86.75 1.292 1.876 1.292 3.375 0 1.847-.643 3.294-1.93 4.344-1.285 1.051-2.97 1.575-5.058 1.575-1.24 0-2.4-.173-3.479-.518"/></g><g clip-path="url(#clip-75dff357-135a-41bc-a583-a4300485a6f7)"><path fill="#fff" d="M48.097 25.684c-.461-.46-.8-1.06-1.016-1.8-.218-.738-.328-1.67-.328-2.803v-9.554h-2.789c-.161 0-.27-.082-.328-.242-.057-.16-.085-.462-.085-.9v-.243c0-.415.021-.702.07-.865A.353.353 0 0 1 43.93 9c.986-.276 1.738-.617 2.255-1.02.516-.405.9-.93 1.154-1.576.251-.644.435-1.534.55-2.664a.322.322 0 0 1 .275-.296c.16-.033.493-.051.999-.051h.276c.527 0 .87.03 1.033.086.16.058.24.167.24.328v4.57h4.339c.158 0 .263.081.31.243.044.162.069.566.069 1.211v.242c0 .646-.025 1.052-.07 1.212-.046.16-.15.242-.309.242h-4.338v9.277c0 .625.038 1.107.121 1.453.077.347.234.637.464.866.39.37.964.554 1.723.554.664 0 1.342-.126 2.03-.38.158-.047.287-.011.379.104.091.114.23.462.412 1.038l.103.31c.162.486.243.82.243 1.004 0 .209-.116.358-.346.452-.55.254-1.167.45-1.843.588-.677.138-1.347.207-2.013.207-1.676 0-2.973-.437-3.89-1.316"/></g><g clip-path="url(#clip-75dff357-135a-41bc-a583-a4300485a6f7)"><path fill="#fff" d="M61.384 5.123c.713 0 1.315-.253 1.81-.761a2.496 2.496 0 0 0 .74-1.8 2.5 2.5 0 0 0-.74-1.8A2.433 2.433 0 0 0 61.384 0c-.71 0-1.314.254-1.807.761a2.5 2.5 0 0 0-.74 1.801c0 .69.247 1.293.74 1.8zm-.102 21.53h.206c.782 0 1.287-.034 1.516-.102.228-.07.342-.186.342-.347V8.826c0-.183-.108-.304-.324-.363-.22-.058-.73-.085-1.534-.085h-.206c-.826 0-1.347.027-1.568.085-.217.059-.326.18-.326.363v17.378c0 .184.109.305.326.364z"/></g><g clip-path="url(#clip-75dff357-135a-41bc-a583-a4300485a6f7)"><path fill="#fff" d="M71.302 25.684c-.46-.46-.8-1.06-1.015-1.8-.22-.738-.329-1.67-.329-2.803v-9.554H67.17c-.162 0-.27-.082-.328-.242-.056-.16-.086-.462-.086-.9v-.243c0-.415.024-.702.069-.865a.358.358 0 0 1 .31-.277c.987-.276 1.74-.617 2.255-1.02.517-.405.9-.93 1.154-1.576.253-.644.435-1.534.55-2.664a.327.327 0 0 1 .277-.296c.16-.033.493-.051.997-.051h.275c.528 0 .872.03 1.033.086.161.058.241.167.241.328v4.57h4.34c.16 0 .262.081.309.243.047.162.069.566.069 1.211v.242c0 .646-.022 1.052-.07 1.212-.046.16-.149.242-.308.242h-4.34v9.277c0 .625.04 1.107.123 1.453.079.347.234.637.463.866.39.37.964.554 1.722.554.665 0 1.344-.126 2.032-.38.16-.047.285-.011.378.104.09.114.23.462.413 1.038l.102.31c.161.486.242.82.242 1.004 0 .209-.115.358-.344.452a8.382 8.382 0 0 1-1.843.588c-.676.138-1.347.207-2.013.207-1.677 0-2.973-.437-3.89-1.316"/></g><g clip-path="url(#clip-75dff357-135a-41bc-a583-a4300485a6f7)"><path fill="#fff" d="M84.039 25.165c-.574-.646-.992-1.42-1.256-2.318-.264-.901-.396-2.02-.396-3.36V8.862c0-.185.115-.312.345-.381.229-.07.733-.104 1.514-.104h.208c.848 0 1.374.034 1.582.104.207.07.31.196.31.38v9.242c0 1.339.053 2.302.154 2.89.105.59.328 1.068.672 1.437.597.647 1.48.97 2.652.97.595 0 1.153-.082 1.67-.243.515-.16.946-.38 1.29-.658.573-.46.896-1.14.965-2.042.045-.576.07-1.88.07-3.912V8.862c0-.185.113-.312.343-.381.229-.07.735-.104 1.513-.104h.173c.85 0 1.384.034 1.603.104.216.07.327.196.327.38v10.592c0 2.493.057 4.72.171 6.681.024.208-.069.347-.277.417-.205.068-.688.103-1.444.103h-.172c-.713 0-1.183-.029-1.412-.086-.231-.059-.355-.168-.38-.33a14.148 14.148 0 0 1-.172-1.626 6.329 6.329 0 0 1-2.254 1.747c-.908.428-1.912.64-3.012.64-2.09 0-3.684-.61-4.787-1.834"/></g><g clip-path="url(#clip-75dff357-135a-41bc-a583-a4300485a6f7)"><path fill="#fff" d="M104.974 25.684c-.46-.46-.799-1.06-1.016-1.8-.22-.738-.328-1.67-.328-2.803v-9.554h-2.79c-.162 0-.269-.082-.325-.242-.057-.16-.086-.462-.086-.9v-.243c0-.415.023-.702.068-.865.047-.161.148-.253.31-.277.986-.276 1.738-.617 2.256-1.02.516-.405.9-.93 1.154-1.576.251-.644.435-1.534.549-2.664a.328.328 0 0 1 .275-.296c.161-.033.495-.051 1-.051h.274c.528 0 .872.03 1.034.086.16.058.24.167.24.328v4.57h4.338c.161 0 .263.081.31.243.048.162.07.566.07 1.211v.242c0 .646-.022 1.052-.07 1.212-.047.16-.149.242-.31.242h-4.339v9.277c0 .625.043 1.107.122 1.453.08.347.235.637.464.866.391.37.965.554 1.723.554.664 0 1.342-.126 2.03-.38.161-.047.289-.011.38.104.091.114.227.462.413 1.038l.102.31c.16.486.242.82.242 1.004 0 .209-.117.358-.344.452a8.408 8.408 0 0 1-1.842.588c-.678.138-1.35.207-2.016.207-1.675 0-2.971-.437-3.888-1.316"/></g><g clip-path="url(#clip-75dff357-135a-41bc-a583-a4300485a6f7)"><path fill="#fff" d="M117.28 24.612c-1.41-1.593-2.117-3.831-2.117-6.717 0-3.184.758-5.624 2.271-7.32 1.516-1.697 3.674-2.545 6.475-2.545 2.57 0 4.562.797 5.974 2.39 1.412 1.59 2.118 3.83 2.118 6.715 0 3.184-.759 5.623-2.274 7.321-1.514 1.696-3.66 2.543-6.438 2.543-2.594 0-4.598-.795-6.008-2.387zm9.435-2.65c.793-1.05 1.188-2.578 1.188-4.585 0-1.823-.333-3.26-.998-4.31-.666-1.051-1.712-1.575-3.134-1.575-1.446 0-2.559.524-3.341 1.575-.778 1.05-1.17 2.579-1.17 4.587 0 1.822.328 3.259.983 4.308.654 1.05 1.69 1.576 3.116 1.576z"/></g><g clip-path="url(#clip-75dff357-135a-41bc-a583-a4300485a6f7)"><path fill="#fff" d="M184.746 1.71c-.502 0-.604 0-.602 1.845v1.642c0 1.776.132 1.912.602 1.912h5.668v19.21c0 .436.334.537 2.267.537h1c1.903 0 2.434-.1 2.434-.537V7.109h5.669c.468 0 .6-.203.6-1.912V3.555c0-1.779-.1-1.845-.6-1.845zm27.21.538c0-.37-.534-.538-2.367-.538h-1.068c-1.935 0-2.269.168-2.269.538v24.07c0 .437.334.538 2.27.538h1.067c1.833 0 2.366-.1 2.366-.537zm27.677-.538h-1.668c-2.134 0-2.267.235-2.434.605l-3.302 7.98c-1.1 2.647-2.233 5.497-2.668 6.973-.399-1.476-1.134-3.455-2.667-7.11l-3.3-7.843c-.2-.47-1.035-.605-2.835-.605h-1.868c-1.835 0-2.2.168-2.2.538v24.07c0 .437.365.538 2.268.538h1.031c1.87 0 2.403-.1 2.403-.537V12.037h.134s.166.672.432 1.274l3.803 8.953c.167.4.366.567 2.133.567h1.134c1.8 0 1.935-.132 2.101-.567l3.468-8.618c.335-.806.567-1.609.567-1.609h.134v14.282c0 .436.365.537 2.333.537l1-.002c1.837 0 2.368-.099 2.368-.535V2.248c0-.37-.531-.538-2.367-.538z"/></g><g clip-path="url(#clip-75dff357-135a-41bc-a583-a4300485a6f7)"><path fill="#d00020" d="M176.021 7.092h-27.054a1.443 1.443 0 0 1-1.439-1.447V3.16a1.445 1.445 0 0 1 1.439-1.445h27.054c.4 0 .76.163 1.021.428.257.261.417.621.417 1.017v2.484c0 .398-.16.757-.417 1.02-.26.264-.622.428-1.02.428zm-16.52 9.88h-10.534a1.443 1.443 0 0 1-1.439-1.446V13.04a1.444 1.444 0 0 1 1.439-1.449H159.5zm17.541-4.95c.257.26.417.622.417 1.019v2.485a1.443 1.443 0 0 1-1.438 1.445h-10.533v-5.379h10.533c.4 0 .76.166 1.021.43zm0 9.882c.257.26.417.62.417 1.017v2.484c0 .397-.16.757-.417 1.018a1.43 1.43 0 0 1-1.02.428h-10.534v-5.377h10.533c.4 0 .76.165 1.021.43zm-17.54 4.947h-10.535c-.398 0-.761-.162-1.02-.425a1.45 1.45 0 0 1-.42-1.021V22.92a1.444 1.444 0 0 1 1.44-1.447H159.5z"/></g></g></svg>